<?xml version="1.0" standalone="no"?>
<!DOCTYPE svg PUBLIC "-//W3C//DTD SVG 20010904//EN"
 "http://www.w3.org/TR/2001/REC-SVG-20010904/DTD/svg10.dtd">
<svg version="1.0" xmlns="http://www.w3.org/2000/svg"
 width="300.000000pt" height="90.000000pt" viewBox="0 0 300.000000 90.000000"
 preserveAspectRatio="xMidYMid meet">
<metadata>
Created by potrace 1.10, written by Peter Selinger 2001-2011
</metadata>
<g transform="translate(0.000000,90.000000) scale(0.100000,-0.100000)"
fill="#0c83df" stroke="none">
<path d="M36 811 c-15 -17 -17 -42 -15 -214 2 -144 6 -199 16 -213 10 -13 30
-19 78 -22 36 -2 65 -6 65 -9 0 -2 -14 -18 -30 -35 -49 -48 -50 -57 -21 -117
36 -75 86 -113 156 -119 76 -6 105 13 105 71 0 48 -22 87 -50 87 -11 0 -32 19
-51 44 -17 25 -38 47 -45 50 -33 13 -10 26 44 26 91 0 97 12 101 183 l3 138
-32 49 c-18 29 -49 59 -75 74 -38 23 -55 26 -138 26 -79 0 -97 -3 -111 -19z
m224 -57 l0 -57 50 5 50 5 0 -118 0 -119 -155 0 -155 0 0 170 0 170 105 0 105
0 0 -56z m79 -28 c-2 -2 -16 -2 -31 1 -23 4 -28 10 -28 36 l0 32 32 -32 c18
-18 30 -34 27 -37z m21 -308 l0 -28 -155 0 -155 0 0 28 0 27 155 0 155 0 0
-27z m-109 -127 c34 -34 37 -41 23 -49 -29 -16 -5 -34 40 -30 l41 3 3 -53 3
-52 -51 0 c-28 0 -64 7 -80 15 -35 18 -70 61 -70 86 0 10 -10 23 -21 30 -21
11 -20 12 17 50 22 21 43 38 47 39 4 0 26 -18 48 -39z"/>
<path d="M97 674 c-4 -4 -7 -45 -7 -91 l0 -83 115 0 116 0 -3 88 -3 87 -105 3
c-58 2 -109 0 -113 -4z m43 -39 c0 -8 -7 -15 -15 -15 -8 0 -15 7 -15 15 0 8 7
15 15 15 8 0 15 -7 15 -15z m100 -50 l0 -65 -37 0 -38 0 0 65 0 65 38 0 37 0
0 -65z m60 50 c0 -8 -7 -15 -15 -15 -8 0 -15 7 -15 15 0 8 7 15 15 15 8 0 15
-7 15 -15z m-160 -50 c0 -8 -7 -15 -15 -15 -8 0 -15 7 -15 15 0 8 7 15 15 15
8 0 15 -7 15 -15z m160 0 c0 -8 -7 -15 -15 -15 -8 0 -15 7 -15 15 0 8 7 15 15
15 8 0 15 -7 15 -15z m-160 -50 c0 -8 -7 -15 -15 -15 -8 0 -15 7 -15 15 0 8 7
15 15 15 8 0 15 -7 15 -15z m160 0 c0 -8 -7 -15 -15 -15 -8 0 -15 7 -15 15 0
8 7 15 15 15 8 0 15 -7 15 -15z"/>
<path d="M520 800 c0 -15 7 -20 29 -20 17 0 33 5 36 11 9 13 7 15 -32 22 -28
6 -33 4 -33 -13z"/>
<path d="M446 788 c-12 -47 -6 -105 12 -121 10 -10 22 -17 27 -17 4 0 33 -27
64 -59 l56 -60 -67 -3 c-105 -6 -103 -1 -103 -240 1 -254 -11 -238 184 -238
188 0 178 -10 180 181 l1 152 -29 46 c-22 34 -46 54 -87 75 l-56 29 31 24 c17
14 38 38 46 53 14 28 13 32 -19 87 -28 47 -32 62 -24 78 11 20 11 20 -13 0
-13 -11 -26 -21 -28 -22 -3 -2 5 -13 17 -26 11 -12 24 -34 27 -49 4 -16 13
-28 21 -28 8 0 14 -4 14 -8 0 -9 -73 -82 -82 -82 -10 0 -78 71 -78 81 0 5 5 9
11 9 6 0 9 6 6 13 -2 7 -22 12 -48 12 l-44 0 1 68 c1 67 -8 87 -20 45z m224
-343 l0 -55 53 0 52 0 0 -115 0 -115 -157 0 -158 0 0 170 0 170 105 0 105 0 0
-55z m87 -31 c-1 -1 -17 1 -34 3 -29 5 -33 9 -33 36 l0 31 35 -34 c19 -18 34
-35 32 -36z m20 -308 l2 -26 -160 0 -159 0 0 28 0 27 157 -2 158 -1 2 -26z"/>
<path d="M670 363 c-87 -6 -90 -8 -90 -58 0 -43 -1 -45 -29 -45 -36 0 -59 -25
-44 -48 7 -11 24 -17 49 -17 l39 0 3 68 c3 63 4 67 26 67 13 0 38 3 55 6 31 6
31 6 31 -35 0 -40 -1 -41 -34 -41 -26 0 -36 -5 -41 -20 -10 -32 13 -51 54 -48
l36 3 3 88 c1 48 -1 86 -5 85 -4 -1 -28 -3 -53 -5z m-90 -138 c0 -9 -9 -15
-25 -15 -16 0 -25 6 -25 15 0 9 9 15 25 15 16 0 25 -6 25 -15z m130 0 c0 -9
-9 -15 -25 -15 -16 0 -25 6 -25 15 0 9 9 15 25 15 16 0 25 -6 25 -15z"/>
<path d="M2569 624 c-8 -9 -19 -37 -24 -63 -11 -50 -31 -62 -71 -41 -13 8 -36
10 -56 6 -18 -4 -53 -10 -78 -15 -25 -4 -57 -14 -71 -21 -24 -11 -31 -9 -59
11 -44 33 -116 33 -160 1 -29 -22 -33 -22 -55 -8 -15 10 -37 14 -60 11 -47 -6
-54 -11 -67 -43 l-11 -27 -10 28 c-11 28 -27 37 -27 15 0 -7 7 -69 15 -138 8
-69 15 -129 16 -135 2 -36 20 53 31 154 l12 121 53 0 52 0 -15 -42 c-13 -38
-62 -225 -78 -301 -6 -25 -10 -27 -54 -27 l-47 0 -32 151 c-17 83 -34 153 -36
155 -2 3 -11 2 -19 -1 -13 -5 -16 -33 -20 -150 -2 -80 -6 -147 -9 -149 -3 -3
-22 -3 -42 1 l-38 6 8 71 c13 113 8 205 -10 224 -15 14 -18 14 -36 -2 -29 -26
-43 -106 -39 -214 l3 -92 -37 0 -38 0 0 179 c0 128 -3 182 -12 187 -6 4 -14 2
-16 -4 -2 -7 -20 1 -44 21 -50 40 -119 45 -165 11 -33 -24 -70 -93 -78 -146
-5 -35 -6 -36 -44 -31 -32 4 -43 0 -73 -26 l-36 -31 -5 30 c-7 32 -1 160 8
168 3 3 18 -7 33 -21 34 -32 70 -34 106 -6 21 16 26 29 26 62 -1 129 -180 160
-272 46 -78 -96 -73 -313 8 -408 68 -78 163 -89 233 -26 l37 34 28 -29 c54
-58 132 -58 193 2 18 17 34 30 36 27 2 -2 11 -16 20 -32 13 -21 25 -27 51 -27
55 0 64 20 69 148 2 68 8 117 15 124 7 7 12 8 13 2 6 -55 6 -90 -2 -154 -10
-74 -9 -75 16 -97 29 -26 63 -29 87 -10 19 14 38 77 38 125 0 51 16 29 30 -40
15 -81 39 -108 97 -108 51 0 63 14 88 108 10 34 21 62 25 62 4 0 11 -17 15
-37 9 -52 30 -85 73 -113 44 -30 113 -33 155 -6 25 17 29 17 45 3 35 -31 107
-22 122 17 5 13 6 66 3 118 -4 70 -2 97 6 103 7 4 18 2 24 -4 18 -18 66 -13
98 10 l29 20 0 -125 c0 -72 4 -126 9 -126 13 0 20 62 23 193 l3 107 -27 0
c-26 0 -28 3 -28 40 0 38 1 39 28 34 l28 -6 -4 66 -4 66 30 0 c17 0 37 3 46 6
13 5 14 -4 9 -66 l-6 -72 31 7 32 7 0 -47 0 -46 -36 7 -35 6 7 -157 7 -158
-30 6 c-22 4 -34 1 -46 -14 -9 -10 -17 -22 -17 -25 0 -12 42 -64 51 -64 6 0 1
12 -10 26 -22 28 -28 54 -12 54 12 0 41 -29 41 -41 0 -5 5 -9 10 -9 6 0 6 7
-2 19 -9 15 -7 23 10 42 12 12 23 34 23 48 1 14 3 69 4 121 4 116 4 115 11
108 3 -3 6 -39 8 -79 4 -132 59 -209 150 -209 57 0 101 32 131 95 21 45 25 68
25 142 0 73 -4 95 -23 128 -51 89 -144 110 -219 47 -14 -12 -20 -11 -47 9 -26
19 -31 30 -31 64 0 28 -6 47 -18 58 -24 22 -76 22 -93 1z m-1495 -38 c39 -16
66 -51 66 -83 0 -26 -32 -63 -55 -63 -20 0 -58 39 -52 53 3 7 8 19 12 28 8 21
-20 32 -45 19 -11 -6 -24 -28 -30 -50 -15 -55 -14 -220 1 -271 16 -51 50 -76
83 -61 29 13 42 52 17 52 -44 0 -56 60 -16 86 33 22 64 10 81 -32 42 -101 -54
-195 -159 -155 -124 47 -158 319 -56 436 27 31 68 51 107 54 7 1 28 -5 46 -13z
m296 -114 c37 -37 53 -101 48 -183 -11 -145 -88 -221 -178 -174 -42 22 -63 68
-68 155 -5 95 10 154 53 197 45 45 103 47 145 5z m814 17 c35 -16 60 -72 51
-115 -8 -44 -56 -98 -106 -121 -37 -16 -40 -20 -35 -47 3 -16 11 -35 17 -43
13 -15 45 -17 54 -3 3 5 2 10 -4 10 -5 0 -13 9 -16 21 -13 41 52 78 83 47 20
-20 14 -74 -11 -103 -29 -35 -104 -46 -142 -21 -58 38 -87 155 -65 261 21 103
94 150 174 114z m306 -9 c14 -14 20 -33 20 -65 0 -37 -4 -47 -25 -61 -36 -24
-75 -6 -75 34 0 15 5 33 12 40 23 23 -2 25 -26 3 -37 -35 -49 -105 -41 -227
l7 -104 -47 0 -47 0 6 31 c3 17 6 103 6 190 l0 159 35 0 c19 0 35 -5 35 -11 0
-6 12 -1 26 10 34 27 88 27 114 1z m414 8 c41 -18 66 -82 66 -167 0 -89 -14
-139 -50 -183 -24 -29 -34 -33 -75 -33 -40 0 -51 5 -75 32 -96 107 -43 363 74
363 19 0 46 -5 60 -12z m-658 -226 c-4 -3 -11 -1 -18 6 -8 8 -8 15 3 28 13 16
14 16 17 -5 2 -13 1 -25 -2 -29z"/>
<path d="M1273 423 c-13 -20 -19 -53 -21 -127 -4 -88 -2 -104 15 -125 18 -21
20 -22 35 -7 21 20 38 100 38 176 0 103 -30 140 -67 83z m37 -106 c0 -49 -5
-80 -15 -93 -14 -18 -14 -18 -16 11 -4 70 7 155 21 155 6 0 10 -33 10 -73z"/>
<path d="M2105 433 c-4 -10 -10 -46 -14 -81 -6 -53 -5 -62 8 -60 38 8 73 96
55 142 -8 21 -40 20 -49 -1z"/>
<path d="M2823 418 c-25 -47 -26 -229 -1 -254 39 -39 68 32 68 164 0 120 -29
159 -67 90z m38 -100 c-2 -69 -8 -98 -20 -98 -12 0 -11 119 0 149 15 37 22 17
20 -51z"/>
<path d="M1540 513 c-63 -5 -90 -12 -90 -23 0 -6 20 -10 45 -10 25 0 45 -5 45
-10 0 -6 13 -1 30 11 40 30 89 18 110 -28 16 -35 27 -37 44 -10 11 17 -3 55
-18 49 -3 -1 -19 4 -36 13 -16 8 -42 14 -57 13 -15 -1 -48 -3 -73 -5z"/>
<path d="M1741 498 c16 -30 69 -18 69 15 0 1 -18 2 -39 2 -34 0 -38 -2 -30
-17z"/>
</g>
</svg>
